<?xml version="1.0" encoding="UTF-8" ?>
<!DOCTYPE svg PUBLIC "-//W3C//DTD SVG 1.1//EN" "http://www.w3.org/Graphics/SVG/1.1/DTD/svg11.dtd">
<svg width="947pt" height="1056pt" viewBox="0 0 947 1056" version="1.1" xmlns="http://www.w3.org/2000/svg">
<path fill="#f9fafc" d=" M 0.00 0.00 L 496.65 0.00 C 488.88 3.68 488.70 13.62 487.98 21.02 C 487.55 41.31 491.68 61.39 496.12 81.10 C 499.11 63.51 503.66 46.26 507.41 28.83 C 508.85 21.85 510.25 14.65 509.15 7.53 C 508.58 3.73 505.57 0.64 501.78 0.00 L 947.00 0.00 L 947.00 1056.00 L 474.71 1056.00 C 498.00 1055.89 521.19 1051.17 542.82 1042.60 C 575.28 1029.84 604.35 1009.98 636.63 996.82 C 659.67 987.26 684.06 981.69 708.00 974.96 C 741.41 965.74 775.57 956.20 804.80 936.91 C 819.29 927.31 832.09 915.12 841.99 900.81 C 831.69 883.63 821.20 866.56 810.82 849.43 C 781.46 871.07 746.55 883.23 711.71 892.85 C 685.61 900.16 659.25 906.66 633.57 915.39 C 606.79 924.39 580.77 935.86 556.69 950.71 C 553.17 952.86 549.77 955.23 546.08 957.10 C 532.45 963.99 518.62 970.61 504.17 975.60 C 491.62 979.90 478.34 982.93 465.00 981.98 C 451.25 981.11 438.19 976.09 425.90 970.14 C 411.90 963.32 398.47 955.42 384.86 947.87 C 339.11 922.37 291.17 900.71 241.37 884.42 C 206.11 872.36 169.28 863.61 136.67 844.99 C 125.91 861.29 115.13 877.58 104.45 893.93 C 115.23 908.38 129.31 920.10 144.79 929.22 C 174.98 946.93 208.90 956.79 242.48 965.85 C 257.21 969.98 272.39 972.74 286.57 978.67 C 313.60 989.75 337.82 1006.31 362.81 1021.18 C 386.30 1035.16 410.88 1048.56 438.02 1053.71 C 448.96 1056.13 460.20 1055.68 471.33 1056.00 L 0.00 1056.00 L 0.00 0.00 Z" />
<path fill="#0f3b70" d=" M 496.65 0.00 L 501.78 0.00 C 505.57 0.64 508.58 3.73 509.15 7.53 C 510.25 14.65 508.85 21.85 507.41 28.83 C 503.66 46.26 499.11 63.51 496.12 81.10 C 491.68 61.39 487.55 41.31 487.98 21.02 C 488.70 13.62 488.88 3.68 496.65 0.00 Z" />
<path fill="#0f3b70" d=" M 481.13 34.18 C 482.84 32.68 484.95 34.60 485.69 36.19 C 488.24 41.68 488.61 47.87 489.26 53.81 C 489.63 61.88 490.16 69.97 489.66 78.05 C 485.21 67.68 480.02 57.36 478.33 46.09 C 477.95 42.07 477.59 36.98 481.13 34.18 Z" />
<path fill="#0f3b70" d=" M 504.57 45.83 C 506.27 40.72 509.91 34.14 516.30 35.14 C 518.49 39.51 517.16 44.49 515.76 48.88 C 511.66 61.61 505.44 73.50 499.49 85.42 C 499.51 72.12 500.64 58.60 504.57 45.83 Z" />
<path fill="#0f3b70" d=" M 471.70 57.98 C 472.50 55.21 477.03 53.28 478.67 56.40 C 481.99 63.09 481.45 71.12 485.37 77.60 C 487.48 81.64 492.14 87.27 488.15 91.52 C 482.88 88.41 477.65 84.72 474.77 79.13 C 471.73 72.63 469.33 65.09 471.70 57.98 Z" />
<path fill="#0f3b70" d=" M 512.81 62.81 C 514.72 59.78 517.93 55.63 522.02 57.59 C 524.63 59.61 523.88 63.47 523.19 66.25 C 519.62 75.98 511.68 83.47 503.02 88.80 C 505.14 79.79 508.18 70.86 512.81 62.81 Z" />
<path fill="#0f3b70" d=" M 450.41 66.30 C 455.97 65.39 460.67 68.96 464.53 72.47 C 471.37 78.76 477.31 86.01 482.45 93.74 C 472.94 89.72 463.29 85.40 455.42 78.57 C 452.03 75.56 448.22 71.11 450.41 66.30 Z" />
<path fill="#0f3b70" d=" M 388.54 72.65 C 396.33 69.11 405.27 70.58 413.20 72.90 C 428.77 77.79 442.52 86.93 455.62 96.43 C 457.36 97.81 459.70 98.93 459.96 101.43 C 455.96 101.58 452.05 100.60 448.07 100.37 C 436.71 99.87 426.45 93.49 415.02 93.59 C 408.64 93.38 403.13 89.95 397.51 87.39 C 393.17 85.46 387.82 84.27 385.28 79.87 C 383.41 77.05 385.91 73.80 388.54 72.65 Z" />
<path fill="#0f3b70" d=" M 425.41 69.77 C 434.82 67.88 443.93 72.31 451.52 77.44 C 459.17 82.60 466.16 88.67 473.01 94.84 C 463.27 94.04 453.78 91.16 444.91 87.14 C 438.11 84.09 431.86 79.70 427.10 73.93 C 426.01 72.80 425.69 71.25 425.41 69.77 Z" />
<path fill="#0f3b70" d=" M 530.18 73.30 C 534.50 70.95 540.19 69.13 544.64 72.18 C 546.09 75.77 542.10 77.96 539.58 79.50 C 529.97 84.47 519.54 87.63 509.23 90.75 C 515.47 84.14 522.17 77.72 530.18 73.30 Z" />
<path fill="#0f3b70" d=" M 540.73 79.68 C 548.42 76.22 556.47 72.93 565.00 72.57 C 564.69 73.91 564.81 75.61 563.34 76.26 C 558.00 79.68 551.79 81.34 545.89 83.50 C 536.84 86.44 527.90 89.70 518.87 92.68 C 525.68 87.61 533.09 83.37 540.73 79.68 Z" />
<path fill="#0f3b70" d=" M 577.10 76.03 C 584.56 73.97 592.15 72.02 599.93 71.79 C 602.86 71.89 606.61 72.06 608.32 74.87 C 609.26 77.24 608.11 79.79 606.15 81.21 C 601.46 84.80 595.62 86.39 590.03 88.02 C 571.98 92.75 553.43 95.12 535.00 97.79 C 529.71 98.40 524.47 99.49 519.15 99.62 C 537.79 90.24 557.02 81.85 577.10 76.03 Z" />
<path fill="#0f3b70" d=" M 613.19 77.35 C 618.77 78.24 623.23 82.13 627.09 85.99 C 637.81 97.44 642.01 113.66 641.81 129.04 C 641.97 157.67 626.09 186.13 600.89 200.03 C 610.67 187.79 620.14 175.07 626.39 160.60 C 632.32 147.34 635.49 132.47 632.99 118.00 C 631.15 107.46 626.08 97.68 619.22 89.55 C 616.47 85.94 612.93 82.22 613.19 77.35 Z" />
<path fill="#0f3b70" d=" M 361.43 80.59 C 363.99 79.19 366.95 79.45 369.49 80.78 C 369.17 82.75 368.90 84.94 367.24 86.29 C 358.85 94.16 350.73 103.48 348.55 115.13 C 346.54 124.46 349.44 134.00 353.32 142.45 C 359.88 156.57 369.39 169.61 372.44 185.14 C 373.45 190.09 373.59 195.19 373.02 200.21 C 371.76 198.07 370.74 195.81 369.70 193.56 C 361.25 175.49 347.97 160.02 340.79 141.32 C 336.25 129.82 335.51 116.69 340.00 105.06 C 343.40 94.41 351.48 85.53 361.43 80.59 Z" />
<path fill="#0f3b70" d=" M 359.37 98.19 C 364.23 94.03 370.71 92.46 376.94 91.79 C 386.45 91.10 396.10 91.72 405.37 93.98 C 395.03 97.06 384.42 99.25 374.15 102.60 C 366.99 104.72 360.07 107.52 353.07 110.05 C 353.78 105.54 355.79 101.15 359.37 98.19 Z" />
<path fill="#0f3b70" d=" M 585.51 93.81 C 593.60 92.02 601.94 92.81 610.11 93.55 C 615.54 93.78 619.91 97.53 623.66 101.10 C 625.93 103.19 627.56 106.00 627.41 109.17 C 624.79 110.50 621.94 111.58 618.95 111.21 C 609.63 110.41 600.55 107.34 592.44 102.74 C 589.19 100.74 585.08 98.23 585.51 93.81 Z" />
<path fill="#0f3b70" d=" M 489.58 95.86 C 498.99 92.48 511.67 97.49 513.75 107.88 C 515.87 117.30 507.10 125.68 498.14 126.23 C 489.55 127.34 479.71 122.05 478.12 113.08 C 476.51 105.38 482.41 98.01 489.58 95.86 Z" />
<path fill="#0f3b70" d=" M 461.95 97.63 C 466.54 99.13 471.79 99.89 475.32 103.46 C 470.55 103.64 463.24 103.44 461.95 97.63 Z" />
<path fill="#0f3b70" d=" M 553.92 98.50 C 560.60 97.67 567.37 96.82 574.11 97.50 C 576.27 97.54 578.03 98.88 579.79 99.97 C 578.63 101.82 577.01 103.38 574.87 103.99 C 566.58 106.80 557.69 107.14 549.01 107.40 C 539.49 107.14 529.79 106.80 520.58 104.16 C 531.66 102.08 542.76 100.08 553.92 98.50 Z" />
<path fill="#0f3b70" d=" M 408.78 101.11 C 410.90 97.69 415.54 98.12 418.99 98.63 C 429.64 100.75 440.33 102.66 451.07 104.32 C 457.74 105.43 465.15 105.85 470.71 110.07 C 468.50 110.37 466.27 110.54 464.04 110.47 C 448.38 109.54 432.54 111.81 416.98 109.14 C 413.11 108.37 407.68 105.99 408.78 101.11 Z" />
<path fill="#0f3b70" d=" M 305.61 119.80 C 310.26 113.09 318.06 109.08 326.02 107.94 C 316.60 117.79 308.05 128.40 299.73 139.17 C 300.25 132.41 301.60 125.43 305.61 119.80 Z" />
<path fill="#0f3b70" d=" M 307.03 138.31 C 315.49 128.79 323.59 118.95 330.76 108.41 C 330.85 116.88 328.06 125.83 321.57 131.57 C 317.54 135.24 312.30 137.24 307.03 138.31 Z" />
<path fill="#0f3b70" d=" M 352.08 117.77 C 372.70 111.04 394.91 107.03 416.50 111.03 C 396.20 117.75 375.59 124.00 356.50 133.79 C 352.76 129.31 352.01 123.40 352.08 117.77 Z" />
<path fill="#0f3b70" d=" M 520.89 109.96 C 529.58 109.17 538.33 107.83 547.05 108.97 C 550.30 109.53 553.94 110.27 556.02 113.09 C 557.42 114.34 556.03 116.23 555.23 117.39 C 553.44 119.51 550.57 120.34 547.89 120.44 C 541.05 120.84 534.45 118.34 528.47 115.25 C 525.76 113.78 522.86 112.42 520.89 109.96 Z" />
<path fill="#0f3b70" d=" M 561.87 112.45 C 576.24 108.31 591.54 109.86 605.96 112.96 C 613.75 114.70 621.43 116.94 628.92 119.73 C 628.73 124.79 629.21 129.84 629.03 134.90 C 606.43 128.12 583.77 121.28 561.87 112.45 Z" />
<path fill="#0f3b70" d=" M 436.57 118.15 C 444.25 114.63 452.68 113.20 461.03 112.45 C 463.51 112.14 465.96 112.64 468.14 113.88 C 466.55 115.69 464.49 117.00 462.17 117.62 C 454.41 120.05 446.07 121.15 437.98 120.06 C 437.63 119.58 436.92 118.63 436.57 118.15 Z" />
<path fill="#0f3b70" d=" M 255.81 131.57 C 266.19 126.42 276.89 121.86 287.89 118.21 C 281.70 127.47 272.65 134.23 263.91 140.89 C 246.54 153.70 228.55 165.93 213.50 181.52 C 192.92 202.09 178.68 229.17 174.87 258.13 C 171.78 233.22 177.52 207.26 191.02 186.07 C 206.38 161.76 230.33 144.17 255.81 131.57 Z" />
<path fill="#0f3b70" d=" M 517.68 118.27 C 525.63 120.43 533.65 122.92 540.79 127.14 C 543.39 128.87 546.92 131.57 545.48 135.16 C 543.59 137.90 539.57 136.93 536.88 136.12 C 528.66 132.70 521.93 126.02 517.68 118.27 Z" />
<path fill="#0f3b70" d=" M 267.70 145.30 C 278.51 137.10 288.99 128.47 298.86 119.15 C 296.95 126.96 293.32 134.83 286.67 139.70 C 281.27 143.78 274.36 145.24 267.70 145.30 Z" />
<path fill="#0f3b70" d=" M 681.07 120.31 C 696.85 125.82 712.18 132.69 726.69 141.01 C 744.63 151.36 761.33 164.40 773.92 180.98 C 785.59 196.26 793.13 214.77 794.76 233.97 C 795.96 243.42 795.11 252.96 793.94 262.37 C 792.61 256.56 792.04 250.60 790.52 244.83 C 786.13 226.46 777.13 209.35 765.15 194.81 C 753.80 181.10 740.21 169.44 725.98 158.83 C 713.95 149.63 701.17 141.32 690.06 130.98 C 686.67 127.77 683.55 124.27 681.07 120.31 Z" />
<path fill="#0f3b70" d=" M 453.44 126.29 C 457.80 121.76 465.09 119.70 470.88 122.63 C 470.50 123.64 470.78 125.07 469.74 125.74 C 466.04 128.42 461.45 129.86 458.38 133.41 C 454.32 137.86 448.23 140.14 442.24 139.29 C 443.75 133.48 449.37 130.23 453.44 126.29 Z" />
<path fill="#0f3b70" d=" M 646.24 120.53 C 650.35 123.89 654.01 128.18 655.32 133.45 C 656.33 138.28 655.94 143.37 654.30 148.02 C 648.69 140.04 645.70 130.29 646.24 120.53 Z" />
<path fill="#0f3b70" d=" M 358.22 137.59 C 378.99 127.19 402.56 120.41 425.94 123.55 C 431.28 124.22 436.60 125.27 441.77 126.81 C 441.78 127.04 441.82 127.50 441.83 127.73 C 437.63 131.10 432.47 132.97 427.42 134.65 C 412.83 139.22 397.53 141.21 383.11 146.37 C 377.56 148.34 372.25 151.02 367.64 154.71 C 363.61 149.54 360.62 143.67 358.22 137.59 Z" />
<path fill="#0f3b70" d=" M 544.41 123.60 C 551.90 122.51 559.58 121.87 567.03 123.57 C 585.19 127.25 602.08 135.17 619.46 141.33 C 622.47 142.27 625.97 144.41 625.87 148.00 C 626.48 151.94 622.11 155.42 618.43 153.88 C 597.76 147.78 577.07 141.66 555.99 137.17 C 553.40 136.87 551.56 134.95 549.84 133.20 C 547.42 130.66 545.14 127.94 543.51 124.81 C 543.74 124.51 544.19 123.90 544.41 123.60 Z" />
<path fill="#0f3b70" d=" M 655.58 122.75 C 665.64 132.14 675.80 141.48 687.01 149.51 C 679.59 149.73 671.70 148.08 666.02 143.02 C 660.08 137.89 657.20 130.23 655.58 122.75 Z" />
<path fill="#0f3b70" d=" M 665.67 125.46 C 672.19 125.53 678.97 127.65 683.61 132.41 C 688.49 137.32 690.60 144.26 691.43 150.98 C 683.33 142.00 674.98 133.19 665.67 125.46 Z" />
<path fill="#0f3b70" d=" M 463.25 134.25 C 466.58 132.19 469.87 129.88 473.73 128.88 C 462.11 141.54 449.16 152.88 436.83 164.83 C 434.34 167.32 428.91 170.12 426.60 166.05 C 427.92 161.74 431.41 158.65 434.58 155.66 C 443.52 147.74 453.22 140.72 463.25 134.25 Z" />
<path fill="#0f3b70" d=" M 511.07 129.31 C 525.61 142.92 539.62 157.13 552.85 172.04 C 557.77 177.87 562.12 184.55 563.66 192.13 C 564.14 195.96 564.49 200.86 561.00 203.43 C 557.81 204.81 554.73 202.50 552.53 200.43 C 547.78 195.78 544.10 190.17 540.51 184.61 C 529.44 166.88 520.38 148.00 511.07 129.31 Z" />
<path fill="#0f3b70" d=" M 522.19 130.09 C 529.94 133.78 537.07 138.74 543.42 144.50 C 548.44 149.30 553.60 154.48 555.90 161.20 C 556.73 162.99 555.81 164.84 555.38 166.60 C 549.24 166.05 544.92 161.22 540.65 157.32 C 533.05 149.39 526.14 140.43 522.19 130.09 Z" />
<path fill="#0f3b70" d=" M 467.65 140.71 C 471.50 137.56 475.36 134.35 479.75 131.95 C 471.02 148.75 461.08 164.91 450.75 180.76 C 445.44 188.96 438.56 197.04 428.97 200.13 C 425.31 201.46 420.28 200.48 419.68 196.00 C 421.83 185.41 429.53 177.23 436.78 169.70 C 446.71 159.67 456.82 149.79 467.65 140.71 Z" />
<path fill="#0f3b70" d=" M 498.09 159.02 C 496.81 149.94 498.35 140.68 501.00 131.98 C 505.34 142.43 510.46 153.31 509.71 164.89 C 509.82 168.37 506.12 172.52 502.55 170.39 C 499.44 167.50 498.75 163.01 498.09 159.02 Z" />
<path fill="#0f3b70" d=" M 483.01 151.88 C 485.56 144.95 488.95 138.14 494.00 132.68 C 494.59 141.80 494.51 151.05 492.76 160.04 C 491.78 163.96 490.27 168.77 485.99 170.15 C 483.85 171.07 481.59 169.39 481.26 167.24 C 479.94 162.11 481.49 156.79 483.01 151.88 Z" />
<path fill="#0f3b70" d=" M 506.42 132.25 C 513.56 140.50 520.30 149.39 524.39 159.58 C 525.70 163.50 527.37 168.12 525.04 171.99 C 523.88 173.97 520.95 174.14 519.36 172.63 C 515.95 169.83 514.26 165.57 512.66 161.59 C 509.25 152.16 507.22 142.23 506.42 132.25 Z" />
<path fill="#0f3b70" d=" M 464.91 162.76 C 470.90 153.30 477.49 144.17 485.10 135.94 C 483.37 139.87 481.44 143.73 480.07 147.82 C 476.84 157.03 475.46 166.75 472.95 176.16 C 471.54 181.11 469.67 186.34 465.46 189.60 C 462.43 192.04 458.38 192.30 454.66 192.42 C 453.22 190.16 453.20 187.39 454.00 184.89 C 456.37 176.97 460.64 169.79 464.91 162.76 Z" />
<path fill="#0f3b70" d=" M 237.03 167.05 C 262.60 150.76 293.06 144.50 322.85 141.67 C 290.46 157.59 259.22 176.21 231.49 199.43 C 216.16 212.05 202.16 226.18 189.13 241.14 C 192.03 226.67 197.07 212.54 204.74 199.91 C 212.76 186.64 223.99 175.40 237.03 167.05 Z" />
<path fill="#0f3b70" d=" M 559.68 145.15 C 568.83 144.43 577.67 147.93 586.12 151.05 C 594.66 154.42 604.19 155.09 612.20 159.83 C 615.35 161.71 618.29 165.15 617.57 169.07 C 616.74 171.34 614.12 172.13 611.97 172.45 C 607.47 173.02 602.86 172.54 598.53 171.23 C 590.12 168.54 581.71 165.68 573.00 164.09 C 567.31 163.04 561.89 160.32 557.80 156.22 C 555.77 154.05 553.67 151.09 554.71 147.95 C 555.65 146.10 557.75 145.42 559.68 145.15 Z" />
<path fill="#0f3b70" d=" M 370.72 159.99 C 392.16 151.01 415.11 143.75 438.62 145.02 C 436.21 149.16 431.67 151.33 427.78 153.84 C 411.81 162.86 394.06 167.99 376.95 174.35 C 374.85 169.57 372.50 164.90 370.72 159.99 Z" />
<path fill="#0f3b70" d=" M 647.23 148.60 C 667.05 150.47 686.77 154.28 705.63 160.73 C 722.91 166.70 739.52 175.42 752.88 188.06 C 770.26 204.46 780.76 227.42 783.88 250.94 C 747.26 206.55 698.72 173.46 647.23 148.60 Z" />
<path fill="#0f3b70" d=" M 246.59 195.46 C 269.89 176.81 296.36 162.34 324.05 151.33 C 306.59 181.33 281.92 207.34 252.15 225.33 C 234.97 235.76 216.32 243.70 197.09 249.45 C 210.38 228.84 227.50 210.80 246.59 195.46 Z" />
<path fill="#0f3b70" d=" M 323.12 170.20 C 324.08 161.90 330.26 154.58 338.64 153.09 C 337.73 161.43 331.56 168.84 323.12 170.20 Z" />
<path fill="#0f3b70" d=" M 648.27 157.76 C 684.52 172.32 718.89 192.64 746.82 220.17 C 758.51 231.90 769.24 244.69 778.04 258.75 C 743.91 248.41 711.39 231.29 685.67 206.33 C 670.95 192.06 658.31 175.64 648.27 157.76 Z" />
<path fill="#0f3b70" d=" M 344.87 172.83 C 353.75 176.27 359.09 184.92 362.33 193.43 C 366.43 204.12 367.72 215.62 368.15 226.98 C 368.26 242.75 364.20 258.21 364.32 273.97 C 364.35 282.68 366.48 291.89 372.57 298.43 C 377.08 303.29 382.47 307.31 386.53 312.61 C 390.21 317.18 392.82 322.48 395.14 327.85 C 396.37 331.00 400.20 331.52 403.13 331.94 C 415.79 333.32 428.89 329.76 441.26 333.81 C 456.24 339.57 468.86 349.81 481.18 359.83 C 483.73 361.83 487.20 363.69 490.46 362.26 C 494.24 360.43 495.66 356.19 497.86 352.92 C 502.82 344.89 510.34 338.69 518.79 334.61 C 535.78 326.40 555.34 325.59 572.16 316.96 C 581.12 312.47 588.66 305.23 593.36 296.37 C 596.63 290.73 598.16 284.34 599.78 278.09 C 602.29 267.93 603.99 257.49 603.70 247.01 C 603.73 239.60 601.62 232.40 601.44 225.01 C 601.05 219.03 601.67 212.52 605.74 207.79 C 610.42 202.21 616.41 197.91 621.57 192.80 C 619.68 202.83 616.81 212.75 616.46 223.01 C 616.32 230.92 618.02 238.80 620.88 246.16 C 623.15 252.12 626.53 257.69 627.83 263.99 C 631.23 278.03 628.16 292.95 621.67 305.63 C 612.93 322.42 598.42 335.90 581.56 344.32 C 563.61 354.16 544.35 361.19 525.76 369.67 C 518.43 373.32 509.96 377.43 507.18 385.79 C 524.70 373.66 545.24 367.34 564.49 358.62 C 586.63 348.92 607.53 336.41 626.45 321.34 C 624.97 333.38 616.45 342.88 607.44 350.29 C 594.38 360.80 580.07 369.62 566.04 378.75 C 580.50 378.51 594.95 373.33 605.79 363.65 C 614.79 355.83 621.50 345.72 626.95 335.21 C 627.91 333.52 628.86 331.72 630.49 330.58 C 631.83 329.71 633.55 330.56 633.91 332.05 C 635.99 337.50 634.86 343.42 634.21 349.02 C 632.71 359.91 627.16 370.68 617.58 376.51 C 609.52 381.75 599.75 382.63 590.52 384.23 C 574.08 387.14 557.76 390.84 541.83 395.89 C 539.38 396.75 536.62 397.96 535.52 400.49 C 534.68 402.98 536.95 404.94 538.80 406.18 C 556.29 417.78 570.53 433.75 581.88 451.30 C 593.70 469.62 602.67 489.65 609.94 510.17 C 615.29 524.90 619.10 540.11 623.39 555.16 C 627.65 570.45 631.93 585.74 636.20 601.03 C 641.14 617.75 644.91 635.57 641.50 652.96 C 639.25 664.79 631.89 675.32 621.88 681.92 C 607.57 691.50 590.64 695.82 574.32 700.67 C 554.57 706.35 534.59 712.28 516.81 722.85 C 506.04 729.21 496.33 737.40 488.47 747.14 C 483.02 754.82 478.98 763.39 475.12 771.95 C 472.47 777.66 470.75 783.77 467.93 789.40 C 461.04 763.93 456.91 737.45 458.54 711.02 C 460.22 682.02 470.71 653.08 490.49 631.50 C 503.32 618.31 515.34 603.87 523.00 586.99 C 528.80 574.21 531.74 559.91 529.98 545.90 C 525.87 562.19 520.44 578.29 511.91 592.84 C 506.76 601.78 500.71 610.18 493.97 617.98 C 483.23 629.51 474.10 642.54 466.67 656.42 C 459.92 669.28 455.50 683.43 454.43 697.95 C 452.88 729.88 459.26 761.41 462.95 792.98 C 464.01 803.18 465.48 813.54 463.94 823.78 C 461.32 804.71 456.55 786.06 451.93 767.40 C 445.85 741.50 440.91 714.72 444.25 688.05 C 446.31 672.02 451.93 656.42 460.94 642.97 C 466.58 634.43 473.07 626.47 480.20 619.15 C 488.54 610.53 498.23 602.99 504.51 592.60 C 512.02 580.27 514.82 565.80 516.80 551.69 C 517.37 547.91 517.65 544.09 517.72 540.27 C 513.23 555.38 508.39 570.58 500.36 584.25 C 493.75 595.66 485.61 606.11 476.89 615.97 C 472.19 621.29 466.97 626.19 462.86 632.01 C 452.47 646.00 444.54 662.01 441.10 679.17 C 436.74 699.58 438.90 720.60 441.74 741.06 C 445.94 763.34 450.81 785.50 454.86 807.80 C 448.15 806.08 446.73 798.29 444.26 792.80 C 435.83 770.78 430.43 747.55 428.89 724.00 C 427.46 699.56 430.46 674.29 441.28 652.07 C 447.51 638.83 456.73 627.32 466.33 616.39 C 480.18 600.32 495.02 584.36 503.39 564.58 C 508.88 552.07 510.66 538.01 508.14 524.56 C 490.13 526.61 472.90 532.95 456.60 540.65 C 447.03 545.31 437.69 550.61 429.45 557.39 C 424.61 561.21 421.00 566.43 415.64 569.62 C 410.70 572.63 404.92 575.36 399.00 574.44 C 397.17 574.24 396.37 572.45 395.43 571.16 C 396.89 566.24 400.73 562.73 404.05 559.03 C 408.20 554.52 412.17 549.85 416.36 545.37 C 417.88 543.57 419.79 541.92 420.45 539.58 C 418.51 538.22 416.89 540.48 415.56 541.62 C 408.92 548.29 401.50 554.11 394.81 560.73 C 391.43 564.12 387.02 567.28 381.96 566.76 C 377.86 566.42 374.96 562.84 373.64 559.21 C 370.77 551.94 368.82 543.88 370.57 536.10 C 372.15 528.40 377.79 522.15 384.42 518.24 C 389.94 515.03 395.13 511.21 399.52 506.55 C 412.32 493.51 417.33 475.45 424.00 458.95 C 430.15 443.12 438.97 428.18 451.07 416.16 C 431.12 416.42 410.64 415.34 391.84 408.09 C 375.27 401.93 361.16 388.77 355.33 371.90 C 377.06 368.70 399.48 368.09 420.98 373.19 C 440.66 377.70 459.10 387.15 474.51 400.16 C 469.03 387.73 460.17 376.19 447.72 370.19 C 435.44 364.15 421.46 363.38 408.01 363.28 C 393.35 363.25 378.62 363.63 364.05 361.63 C 358.26 360.82 352.21 360.02 347.18 356.80 C 340.87 353.02 336.52 346.67 333.89 339.92 C 329.95 329.79 328.99 318.79 329.14 308.01 C 329.06 294.70 331.06 281.48 333.74 268.48 C 337.12 253.35 341.34 238.23 348.61 224.47 C 354.26 213.35 355.31 200.05 351.44 188.20 C 349.91 182.81 347.14 177.92 344.87 172.83 Z" />
<path fill="#0f3b70" d=" M 637.63 172.89 C 643.79 176.47 649.58 180.67 655.37 184.81 C 651.50 186.34 647.69 188.00 643.90 189.72 C 642.58 192.78 641.14 195.79 639.61 198.74 C 635.26 195.57 630.64 192.79 626.39 189.49 L 626.31 188.96 C 629.80 183.42 633.99 178.33 637.63 172.89 Z" />
<path fill="#0f3b70" d=" M 314.18 178.16 C 319.85 175.25 326.38 174.93 332.62 175.47 C 320.70 182.19 309.46 190.00 298.42 198.06 C 301.19 189.93 306.22 182.01 314.18 178.16 Z" />
<path fill="#0f3b70" d=" M 301.62 204.20 C 312.59 197.57 323.00 190.11 333.11 182.25 C 330.90 189.20 326.93 195.87 320.80 200.01 C 315.23 203.80 308.21 204.74 301.62 204.20 Z" />
<path fill="#0f3b70" d=" M 649.11 191.33 C 655.37 190.07 662.27 191.53 667.22 195.67 C 670.22 198.08 672.31 201.38 674.13 204.73 C 664.55 203.27 655.70 198.39 649.11 191.33 Z" />
<path fill="#0f3b70" d=" M 295.14 211.58 C 301.37 209.90 307.92 208.24 314.38 209.41 C 297.02 221.30 279.57 233.19 260.79 242.77 C 238.49 254.26 213.85 263.13 188.42 261.99 C 211.57 254.70 232.73 242.62 253.80 230.81 C 267.14 223.53 280.54 216.03 295.14 211.58 Z" />
<path fill="#0f3b70" d=" M 647.40 210.69 C 647.51 210.41 647.71 209.85 647.82 209.57 L 648.17 210.56 C 664.97 209.99 680.52 217.70 695.16 225.03 C 722.62 239.41 748.84 256.71 778.59 266.19 C 757.44 266.84 736.65 260.83 717.45 252.38 C 692.45 241.46 669.87 225.96 647.40 210.69 Z" />
<path fill="#0f3b70" d=" M 811.54 223.39 C 821.74 230.56 829.82 242.10 829.77 254.94 C 830.27 264.49 826.85 273.66 822.73 282.11 C 820.11 262.35 817.22 242.54 811.54 223.39 Z" />
<path fill="#0f3b70" d=" M 138.79 249.01 C 140.44 238.73 147.02 229.61 155.54 223.84 C 149.94 241.18 146.48 259.10 143.22 277.00 C 139.57 268.21 137.20 258.53 138.79 249.01 Z" />
<path fill="#0f3b70" d=" M 150.47 266.03 C 154.52 253.00 157.10 239.60 159.72 226.24 C 162.56 233.83 164.77 242.28 162.23 250.29 C 160.35 256.74 155.83 262.12 150.47 266.03 Z" />
<path fill="#0f3b70" d=" M 802.45 255.85 C 799.97 246.38 801.91 236.22 805.95 227.46 C 809.17 244.05 813.38 260.43 818.81 276.43 C 811.46 271.45 804.79 264.66 802.45 255.85 Z" />
<path fill="#0f3b70" d=" M 119.10 277.11 C 122.09 270.20 127.00 264.02 133.29 259.84 C 132.74 275.93 127.80 292.07 117.93 304.92 C 115.90 295.78 115.38 285.91 119.10 277.11 Z" />
<path fill="#0f3b70" d=" M 182.78 274.16 C 200.74 272.92 218.56 268.69 234.89 261.03 C 234.28 267.47 231.47 274.25 225.58 277.54 C 218.02 281.76 208.88 280.88 200.67 279.44 C 194.62 278.07 188.34 277.01 182.78 274.16 Z" />
<path fill="#0f3b70" d=" M 122.98 306.00 C 136.16 290.55 151.73 277.37 167.71 264.92 C 165.40 269.07 162.75 273.00 160.26 277.04 C 137.42 313.73 118.81 353.31 107.70 395.17 C 104.67 406.22 102.51 417.47 100.23 428.69 C 98.67 427.60 98.61 425.62 98.13 423.99 C 94.74 409.22 91.55 394.23 91.72 379.00 C 91.99 368.00 93.94 357.00 97.83 346.69 C 103.42 331.63 112.51 318.10 122.98 306.00 Z" />
<path fill="#0f3b70" d=" M 729.36 264.19 C 746.62 272.52 765.52 276.74 784.49 278.84 C 776.16 281.54 767.52 283.27 758.83 284.19 C 751.01 284.71 742.17 284.45 735.91 279.08 C 731.53 275.43 729.94 269.64 729.36 264.19 Z" />
<path fill="#0f3b70" d=" M 837.72 265.18 C 845.12 270.92 851.43 278.72 853.26 288.11 C 854.47 295.54 853.82 303.25 851.56 310.42 C 841.38 297.89 837.37 281.11 837.72 265.18 Z" />
<path fill="#0f3b70" d=" M 128.91 349.20 C 142.90 320.55 160.40 293.83 175.55 265.82 C 175.87 299.39 166.30 332.46 151.49 362.38 C 139.55 386.48 124.34 408.83 107.73 429.94 C 106.53 431.48 105.52 433.17 104.32 434.71 C 107.27 405.04 115.85 375.98 128.91 349.20 Z" />
<path fill="#0f3b70" d=" M 88.32 306.16 C 94.55 291.66 103.47 278.31 114.53 267.05 C 107.50 305.26 92.83 341.67 86.70 380.09 C 84.23 395.65 83.96 411.53 86.28 427.13 C 72.36 388.42 71.97 344.20 88.32 306.16 Z" />
<path fill="#0f3b70" d=" M 800.64 269.90 C 815.52 280.91 829.35 293.36 841.87 306.98 C 854.44 320.97 865.48 336.85 871.15 354.95 C 875.67 369.12 876.32 384.35 873.78 398.96 C 871.69 412.04 867.56 424.66 863.75 437.30 C 861.08 417.94 857.42 398.69 851.83 379.95 C 840.41 340.95 822.24 304.22 800.64 269.90 Z" />
<path fill="#0f3b70" d=" M 857.16 273.15 C 870.74 286.84 880.58 304.04 886.37 322.39 C 897.33 357.60 893.94 396.44 879.88 430.28 C 879.36 431.56 878.95 432.89 878.48 434.19 C 878.78 430.43 879.60 426.75 880.18 423.04 C 883.19 402.34 880.57 381.32 876.43 360.97 C 870.35 331.62 861.55 302.84 857.16 273.15 Z" />
<path fill="#0f3b70" d=" M 792.33 270.44 C 801.62 288.10 811.44 305.47 821.11 322.92 C 832.56 343.68 843.14 365.12 849.73 387.97 C 854.64 405.13 857.95 422.87 858.66 440.71 C 849.98 428.54 840.76 416.73 832.85 404.01 C 811.40 370.64 795.16 332.87 792.42 292.91 C 792.00 285.43 792.10 277.93 792.33 270.44 Z" />
<path fill="#0f3b70" d=" M 181.69 300.54 C 186.65 294.28 194.27 290.77 201.90 289.03 C 192.59 298.93 183.60 309.16 175.61 320.17 C 175.57 313.23 177.30 306.04 181.69 300.54 Z" />
<path fill="#0f3b70" d=" M 170.19 343.14 C 181.31 324.19 192.92 304.96 209.40 290.12 C 203.06 326.60 185.64 360.68 161.48 388.57 C 146.96 405.36 130.52 420.48 112.77 433.79 C 136.67 406.84 152.20 374.02 170.19 343.14 Z" />
<path fill="#0f3b70" d=" M 763.02 293.05 C 770.91 294.85 778.78 298.48 783.88 304.97 C 788.26 310.51 789.66 317.82 789.34 324.74 C 781.33 313.56 772.44 303.07 763.02 293.05 Z" />
<path fill="#0f3b70" d=" M 755.03 294.04 C 768.44 306.01 778.31 321.27 787.40 336.62 C 807.53 371.03 823.13 408.47 849.11 439.13 C 821.42 417.97 796.24 392.68 778.62 362.40 C 766.46 341.43 758.17 318.10 755.03 294.04 Z" />
<path fill="#f9fafc" d=" M 376.03 384.86 C 394.25 383.33 412.90 385.89 429.77 393.05 C 437.74 396.37 445.25 400.69 452.37 405.55 C 434.01 405.78 415.16 405.49 397.56 399.62 C 389.18 396.84 381.44 391.91 376.03 384.86 Z" />
<path fill="#0f3b70" d=" M 120.67 434.59 C 125.92 427.58 134.18 423.27 142.73 421.86 C 131.87 433.54 122.28 446.31 113.25 459.42 C 113.27 450.69 115.39 441.69 120.67 434.59 Z" />
<path fill="#0f3b70" d=" M 115.49 460.60 C 126.32 448.73 135.91 435.85 145.25 422.80 C 144.85 431.74 142.89 441.04 137.20 448.18 C 131.97 455.05 123.70 458.69 115.49 460.60 Z" />
<path fill="#0f3b70" d=" M 77.32 425.24 C 77.54 425.23 77.97 425.22 78.19 425.21 C 83.68 437.94 85.43 452.44 82.36 466.01 C 77.48 459.67 73.42 452.23 73.13 444.06 C 72.74 437.55 74.34 431.01 77.32 425.24 Z" />
<path fill="#0f3b70" d=" M 57.49 447.11 C 55.84 440.16 56.84 432.91 58.83 426.14 C 67.44 438.76 72.48 454.10 71.68 469.45 C 65.15 463.41 59.33 456.00 57.49 447.11 Z" />
<path fill="#0f3b70" d=" M 818.67 427.06 C 828.87 428.90 838.88 434.69 843.71 444.14 C 847.23 450.65 848.00 458.16 847.96 465.44 C 839.09 451.99 829.41 439.08 818.67 427.06 Z" />
<path fill="#0f3b70" d=" M 815.87 427.92 C 821.36 435.49 826.45 443.37 832.31 450.69 C 836.40 456.11 841.02 461.08 845.29 466.36 C 836.95 464.37 828.51 460.69 823.17 453.72 C 817.44 446.46 815.77 436.94 815.87 427.92 Z" />
<path fill="#0f3b70" d=" M 885.60 434.83 C 886.15 433.58 887.01 432.52 887.85 431.46 C 891.09 438.52 892.66 446.55 890.89 454.22 C 889.17 461.12 885.32 467.45 880.24 472.40 C 878.05 459.70 880.34 446.51 885.60 434.83 Z" />
<path fill="#0f3b70" d=" M 891.38 476.28 C 891.88 460.81 897.59 445.35 907.71 433.60 C 909.71 441.55 909.97 450.23 906.62 457.86 C 903.56 465.40 897.64 471.30 891.38 476.28 Z" />
<path fill="#f9fafc" d=" M 487.41 453.42 C 495.20 447.31 505.42 446.23 514.98 445.86 C 513.76 455.22 508.97 464.68 500.51 469.42 C 493.22 473.66 484.52 474.18 476.28 473.78 C 477.55 466.00 480.92 458.21 487.41 453.42 Z" />
<path fill="#0f3b70" d=" M 73.76 526.99 C 73.98 499.26 81.64 472.13 92.30 446.73 C 93.85 503.77 95.24 561.01 103.67 617.54 C 92.45 600.17 83.17 581.32 78.15 561.19 C 75.28 550.02 74.04 538.49 73.76 526.99 Z" />
<path fill="#0f3b70" d=" M 100.71 473.99 C 100.83 464.94 100.46 455.89 100.93 446.85 C 111.80 470.57 120.05 495.56 124.89 521.21 C 131.95 558.89 130.05 599.01 114.64 634.46 C 113.24 629.65 112.70 624.66 111.91 619.74 C 104.87 571.48 101.49 522.73 100.71 473.99 Z" />
<path fill="#0f3b70" d=" M 130.98 560.08 C 130.37 524.41 127.48 487.80 138.15 453.18 C 150.17 497.19 148.22 544.14 137.05 588.11 C 134.33 599.26 130.82 610.18 127.36 621.12 C 130.58 600.95 131.80 580.48 130.98 560.08 Z" />
<path fill="#0f3b70" d=" M 834.98 516.17 C 841.50 494.21 850.81 473.18 861.54 452.97 C 861.30 474.84 859.13 496.63 857.07 518.38 C 852.61 559.32 846.51 600.15 836.98 640.23 C 833.79 634.00 832.14 627.12 830.27 620.41 C 821.58 586.13 824.86 549.77 834.98 516.17 Z" />
<path fill="#0f3b70" d=" M 870.85 452.85 C 881.77 481.81 889.42 513.13 884.98 544.21 C 881.03 573.41 866.97 600.27 849.25 623.44 C 861.38 567.31 866.10 509.96 870.85 452.85 Z" />
<path fill="#0f3b70" d=" M 492.36 454.53 C 496.81 452.93 501.73 457.22 500.60 461.86 C 499.94 466.67 493.09 468.59 489.88 465.08 C 486.61 462.05 487.92 455.70 492.36 454.53 Z" />
<path fill="#0f3b70" d=" M 821.50 458.85 C 827.65 479.58 827.81 501.59 826.64 523.03 C 825.26 548.69 821.58 574.25 822.13 600.00 C 821.83 608.84 823.41 617.58 823.60 626.41 C 820.01 612.04 815.84 597.79 813.45 583.15 C 806.03 541.91 807.89 498.64 821.50 458.85 Z" />
<path fill="#0f3b70" d=" M 49.31 463.55 C 57.45 505.83 66.25 548.31 82.43 588.37 C 89.31 605.58 97.77 622.17 108.04 637.60 C 91.17 627.05 76.42 612.95 65.65 596.17 C 55.67 580.67 49.36 562.95 46.39 544.79 C 41.99 517.83 44.33 490.26 49.31 463.55 Z" />
<path fill="#0f3b70" d=" M 121.92 465.53 C 126.84 473.39 128.16 483.41 126.52 492.47 C 122.92 488.05 119.72 482.87 119.62 477.00 C 119.32 473.03 120.51 469.18 121.92 465.53 Z" />
<path fill="#0f3b70" d=" M 831.73 498.09 C 830.71 488.60 833.06 478.87 838.14 470.81 C 839.60 475.00 840.91 479.50 839.95 483.97 C 839.05 489.53 835.60 494.19 831.73 498.09 Z" />
<path fill="#0f3b70" d=" M 915.29 470.86 C 918.38 487.38 919.09 504.28 918.47 521.05 C 917.26 549.68 909.01 578.55 891.82 601.78 C 879.22 618.90 862.58 633.07 843.86 643.08 C 863.04 618.19 877.18 589.81 888.32 560.54 C 899.38 531.32 908.13 501.25 915.29 470.86 Z" />
<path fill="#0f3b70" d=" M 61.33 476.25 C 61.53 476.28 61.93 476.36 62.13 476.40 C 66.18 484.38 67.42 493.57 66.29 502.41 C 58.95 496.09 57.30 484.86 61.33 476.25 Z" />
<path fill="#0f3b70" d=" M 895.46 509.72 C 894.59 500.29 896.73 490.57 901.93 482.61 C 903.74 487.38 904.60 492.64 903.29 497.65 C 901.96 502.35 898.98 506.40 895.46 509.72 Z" />
<path fill="#f9fafc" d=" M 390.68 532.59 C 395.55 527.98 401.77 525.12 407.20 521.25 C 410.49 523.32 410.41 528.09 407.73 530.63 C 403.79 534.64 398.38 537.18 392.92 538.27 C 389.63 538.72 388.46 534.62 390.68 532.59 Z" />
<path fill="#0f3b70" d=" M 143.32 635.58 C 145.94 622.48 147.72 609.23 148.90 595.92 C 152.13 602.08 154.42 608.95 153.78 615.99 C 153.48 623.73 148.79 630.45 143.32 635.58 Z" />
<path fill="#0f3b70" d=" M 136.61 612.04 C 138.02 605.80 141.96 600.45 146.67 596.26 C 143.91 609.29 142.06 622.49 141.12 635.78 C 137.13 628.67 134.64 620.15 136.61 612.04 Z" />
<path fill="#0f3b70" d=" M 796.48 625.00 C 794.58 616.52 797.95 607.91 802.39 600.80 C 802.84 614.06 803.87 627.31 806.14 640.39 C 801.55 636.33 797.69 631.11 796.48 625.00 Z" />
<path fill="#0f3b70" d=" M 804.71 601.13 C 809.97 606.07 814.53 612.50 814.82 619.96 C 815.47 627.49 812.32 634.63 808.53 640.93 C 808.01 627.60 806.97 614.29 804.71 601.13 Z" />
<path fill="#0f3b70" d=" M 70.23 624.09 C 81.36 625.80 92.38 630.52 100.26 638.73 C 107.82 646.74 111.34 657.87 111.61 668.73 C 99.01 652.80 85.11 637.91 70.23 624.09 Z" />
<path fill="#0f3b70" d=" M 67.58 626.14 C 80.11 642.15 94.24 656.80 108.89 670.86 C 96.90 668.76 84.85 663.58 77.03 653.93 C 70.72 646.16 67.85 636.04 67.58 626.14 Z" />
<path fill="#0f3b70" d=" M 853.88 642.89 C 862.57 635.86 873.56 632.45 884.43 630.61 C 868.18 644.31 852.39 658.61 838.04 674.33 C 838.91 662.34 844.33 650.41 853.88 642.89 Z" />
<path fill="#0f3b70" d=" M 840.77 676.66 C 856.98 663.01 872.84 648.86 886.98 633.04 C 886.38 645.53 880.27 657.82 870.19 665.33 C 861.66 671.72 851.22 675.12 840.77 676.66 Z" />
<path fill="#0f3b70" d=" M 155.86 633.69 C 162.92 642.80 166.17 654.69 165.72 666.14 C 161.45 662.19 157.54 657.59 155.70 651.98 C 153.64 646.07 154.33 639.63 155.86 633.69 Z" />
<path fill="#0f3b70" d=" M 165.09 637.64 C 188.70 661.26 209.36 688.25 223.72 718.52 C 233.49 739.44 240.03 762.54 238.08 785.82 C 235.10 776.04 232.29 766.17 228.01 756.85 C 219.81 737.91 207.56 721.18 195.71 704.42 C 181.46 684.39 169.15 662.14 165.09 637.64 Z" />
<path fill="#0f3b70" d=" M 792.49 638.17 C 794.69 645.11 794.32 653.11 790.60 659.49 C 788.06 663.82 784.64 667.71 780.35 670.37 C 780.68 658.64 785.43 647.42 792.49 638.17 Z" />
<path fill="#0f3b70" d=" M 39.98 667.36 C 41.77 656.20 47.84 645.78 57.20 639.31 C 73.45 680.90 91.25 722.14 114.91 760.13 C 131.70 786.75 151.57 812.25 177.59 830.44 C 162.51 832.73 147.34 834.35 132.24 836.52 C 124.24 848.54 116.39 860.66 108.23 872.58 C 81.87 843.17 57.89 811.38 39.24 776.48 C 21.01 742.57 8.08 705.78 1.38 667.86 C 0.91 665.07 1.01 662.23 1.00 659.43 C 13.11 665.31 26.84 665.84 39.98 667.36 Z" />
<path fill="#0f3b70" d=" M 115.50 641.13 C 146.04 698.05 184.04 751.19 230.00 796.70 C 215.06 796.03 200.92 789.67 188.99 780.92 C 173.30 769.40 160.74 754.23 149.65 738.37 C 140.04 724.40 130.87 709.91 124.86 693.98 C 118.47 677.11 117.06 658.94 115.50 641.13 Z" />
<path fill="#0f3b70" d=" M 123.28 640.80 C 153.09 659.87 178.26 685.80 197.33 715.54 C 213.41 740.40 225.59 767.51 236.89 794.80 C 191.99 749.21 152.85 697.65 123.28 640.80 Z" />
<path fill="#0f3b70" d=" M 724.45 707.57 C 740.71 683.07 760.82 661.24 783.00 642.00 C 779.83 654.66 774.49 666.70 768.01 677.99 C 752.02 705.55 727.50 727.02 711.92 754.86 C 705.60 765.37 701.34 776.89 696.89 788.27 C 696.13 759.08 708.77 731.50 724.45 707.57 Z" />
<path fill="#0f3b70" d=" M 739.84 725.07 C 762.82 692.99 792.50 665.48 827.11 646.38 C 799.20 691.07 765.77 732.29 728.03 769.05 C 718.22 778.66 708.32 788.20 697.90 797.14 C 710.21 772.21 723.60 747.69 739.84 725.07 Z" />
<path fill="#0f3b70" d=" M 801.08 696.24 C 813.22 680.28 824.44 663.65 835.44 646.90 C 832.85 662.66 830.79 678.73 824.87 693.69 C 819.21 708.08 810.53 721.03 801.28 733.34 C 787.17 751.97 771.44 769.80 751.99 783.02 C 738.08 792.36 721.86 799.28 704.90 799.46 C 740.61 768.71 772.76 733.90 801.08 696.24 Z" />
<path fill="#0f3b70" d=" M 98.29 680.98 C 108.70 685.79 117.61 693.94 123.03 704.09 C 115.11 703.04 107.32 698.93 102.92 692.12 C 100.63 688.76 99.30 684.88 98.29 680.98 Z" />
<path fill="#0f3b70" d=" M 850.33 746.50 C 863.74 726.53 875.38 705.29 884.07 682.83 C 892.14 696.58 899.99 710.47 907.95 724.29 C 920.72 720.16 933.32 715.52 946.05 711.27 C 946.25 715.71 944.32 719.80 943.00 723.93 C 930.53 760.27 910.60 793.75 886.43 823.49 C 872.25 841.00 856.65 857.34 840.17 872.68 C 832.83 860.29 825.35 847.98 818.04 835.57 C 803.62 835.32 789.20 835.04 774.79 834.46 C 802.53 807.50 828.69 778.65 850.33 746.50 Z" />
<path fill="#0f3b70" d=" M 88.53 686.71 C 114.48 713.56 136.61 743.77 160.93 772.05 C 172.71 785.79 188.22 796.72 205.91 801.25 C 212.85 803.22 220.06 803.77 227.19 804.71 C 214.95 809.12 202.22 814.01 188.98 813.02 C 178.42 812.09 168.93 806.58 160.87 799.99 C 132.58 776.79 112.11 745.33 98.12 711.79 C 94.68 703.53 91.30 695.22 88.53 686.71 Z" />
<path fill="#0f3b70" d=" M 823.62 709.75 C 830.29 699.56 840.14 691.47 851.47 687.00 C 849.59 692.92 846.44 698.60 841.51 702.51 C 836.44 706.66 830.01 708.73 823.62 709.75 Z" />
<path fill="#0f3b70" d=" M 781.60 774.60 C 808.37 747.45 833.30 718.46 861.58 692.84 C 850.52 718.82 836.88 743.94 818.98 765.89 C 806.49 781.03 792.18 794.79 776.01 805.97 C 766.59 812.38 755.56 817.25 743.95 816.81 C 731.27 816.58 719.24 811.96 707.50 807.60 C 719.50 806.73 731.62 805.28 742.90 800.88 C 757.69 795.40 770.77 785.95 781.60 774.60 Z" />
<path fill="#0f3b70" d=" M 248.38 747.57 C 257.38 752.69 265.20 761.04 267.31 771.45 C 268.33 777.52 267.81 783.84 265.85 789.68 C 265.09 788.51 264.44 787.27 264.05 785.95 C 259.87 772.76 254.36 760.03 248.38 747.57 Z" />
<path fill="#0f3b70" d=" M 246.27 749.06 C 251.33 763.68 257.00 778.09 263.64 792.08 C 255.77 787.12 248.43 780.26 245.60 771.14 C 243.19 763.96 244.31 756.20 246.27 749.06 Z" />
<path fill="#0f3b70" d=" M 667.07 771.97 C 670.30 761.98 678.87 754.78 687.89 750.03 C 681.38 762.08 674.76 774.13 669.69 786.89 C 668.98 788.71 668.10 790.46 667.17 792.18 C 665.39 785.60 664.79 778.50 667.07 771.97 Z" />
<path fill="#0f3b70" d=" M 689.98 751.71 C 692.59 760.01 692.44 769.56 688.00 777.22 C 683.83 784.82 676.59 790.04 669.22 794.26 C 677.03 780.53 684.09 766.38 689.98 751.71 Z" />
<path fill="#0f3b70" d=" M 271.76 766.17 C 290.38 771.42 308.73 777.62 326.85 784.38 C 349.38 792.98 371.63 802.79 391.81 816.11 C 409.75 828.07 426.71 843.53 434.67 864.06 C 423.51 854.42 411.99 845.17 399.50 837.29 C 367.51 816.63 331.51 803.38 298.81 784.00 C 289.53 778.48 280.35 772.73 271.76 766.17 Z" />
<path fill="#0f3b70" d=" M 604.06 784.45 C 623.24 778.43 642.53 772.57 662.15 768.18 C 637.86 783.83 611.46 795.77 584.86 806.90 C 556.72 818.69 528.43 830.80 503.03 847.92 C 496.23 852.33 489.83 857.33 483.33 862.16 C 490.86 846.05 504.22 833.48 518.60 823.43 C 544.58 805.60 574.31 794.26 604.06 784.45 Z" />
<path fill="#0f3b70" d=" M 274.37 775.47 C 284.82 780.45 293.79 788.66 299.29 798.88 C 292.81 797.72 286.35 795.06 281.80 790.16 C 277.88 786.15 275.69 780.83 274.37 775.47 Z" />
<path fill="#0f3b70" d=" M 631.09 799.99 C 637.64 789.76 647.59 781.97 658.76 777.34 C 656.95 783.51 653.57 789.38 648.38 793.30 C 643.39 797.10 637.28 799.26 631.09 799.99 Z" />
<path fill="#0f3b70" d=" M 249.74 796.49 C 272.06 798.38 294.33 801.72 316.03 807.39 C 337.46 812.99 357.97 821.83 377.12 832.92 C 393.24 842.22 408.54 852.87 423.56 863.83 C 362.77 850.31 302.38 830.47 249.74 796.49 Z" />
<path fill="#0f3b70" d=" M 579.75 817.78 C 613.18 805.68 648.77 801.03 684.09 798.82 C 625.81 831.71 560.59 849.74 495.25 862.27 C 521.85 844.74 549.73 828.69 579.75 817.78 Z" />
<path fill="#0f3b70" d=" M 246.13 807.87 C 263.15 816.59 280.06 825.54 297.56 833.28 C 335.28 850.36 374.61 863.92 414.92 873.41 C 419.76 874.58 424.65 875.53 429.47 876.83 C 414.07 885.05 396.39 888.79 378.99 888.27 C 358.03 887.50 337.73 880.48 319.54 870.32 C 291.30 854.51 267.31 832.13 246.13 807.87 Z" />
<path fill="#0f3b70" d=" M 647.63 827.75 C 660.88 822.21 673.99 816.32 686.96 810.15 C 669.88 827.91 650.68 843.67 630.04 857.14 C 605.69 872.79 578.24 884.94 549.08 887.17 C 528.06 888.82 506.59 884.63 487.86 874.90 C 542.66 865.22 596.34 849.35 647.63 827.75 Z" />
<path fill="#0f3b70" d=" M 202.23 816.78 C 212.03 813.37 222.96 812.29 232.95 815.54 C 242.59 818.70 250.59 826.07 255.29 834.98 C 238.06 827.68 220.38 821.36 202.23 816.78 Z" />
<path fill="#0f3b70" d=" M 698.19 819.08 C 709.13 815.26 721.24 816.33 732.14 819.75 C 732.11 819.89 732.04 820.17 732.01 820.32 C 717.88 823.87 703.73 827.45 689.94 832.22 C 685.14 833.70 680.56 835.85 675.65 837.00 C 681.32 829.11 688.88 822.27 698.19 819.08 Z" />
<path fill="#0f3b70" d=" M 223.93 843.23 C 213.94 840.20 205.93 832.49 200.91 823.52 C 218.13 831.05 236.00 836.96 254.08 842.03 C 244.40 845.03 233.76 846.34 223.93 843.23 Z" />
<path fill="#0f3b70" d=" M 676.66 844.14 C 696.23 839.83 715.44 834.03 734.23 827.10 C 727.72 837.26 717.09 844.99 705.08 846.98 C 695.56 848.49 685.73 847.27 676.66 844.14 Z" />
<path fill="#0f3b70" d=" M 452.71 833.84 C 457.63 833.80 458.52 841.03 456.59 844.53 C 455.79 847.39 451.47 847.76 450.27 845.06 C 448.51 841.56 448.48 835.57 452.71 833.84 Z" />
<path fill="#0f3b70" d=" M 461.68 844.35 C 459.82 840.46 460.97 835.24 465.03 833.27 C 469.86 835.52 470.65 842.51 467.12 846.23 C 465.23 847.75 462.31 846.63 461.68 844.35 Z" />
<path fill="#0f3b70" d=" M 144.52 842.84 C 156.14 840.71 167.89 839.45 179.53 837.44 C 181.64 844.43 183.52 851.50 185.43 858.56 C 171.80 853.30 158.05 848.36 144.52 842.84 Z" />
<path fill="#0f3b70" d=" M 772.47 842.21 C 783.64 842.37 794.82 842.54 805.99 842.77 C 794.88 849.55 783.68 856.20 772.53 862.90 C 772.39 856.00 772.48 849.11 772.47 842.21 Z" />
<path fill="#0f3b70" d=" M 242.44 853.45 C 249.24 847.80 257.82 842.63 267.05 844.58 C 276.59 846.71 283.37 854.75 288.24 862.74 C 273.81 856.57 258.18 853.00 242.44 853.45 Z" />
<path fill="#0f3b70" d=" M 136.67 844.99 C 169.28 863.61 206.11 872.36 241.37 884.42 C 291.17 900.71 339.11 922.37 384.86 947.87 C 398.47 955.42 411.90 963.32 425.90 970.14 C 438.19 976.09 451.25 981.11 465.00 981.98 C 478.34 982.93 491.62 979.90 504.17 975.60 C 518.62 970.61 532.45 963.99 546.08 957.10 C 549.77 955.23 553.17 952.86 556.69 950.71 C 580.77 935.86 606.79 924.39 633.57 915.39 C 659.25 906.66 685.61 900.16 711.71 892.85 C 746.55 883.23 781.46 871.07 810.82 849.43 C 821.20 866.56 831.69 883.63 841.99 900.81 C 832.09 915.12 819.29 927.31 804.80 936.91 C 775.57 956.20 741.41 965.74 708.00 974.96 C 684.06 981.69 659.67 987.26 636.63 996.82 C 604.35 1009.98 575.28 1029.84 542.82 1042.60 C 521.19 1051.17 498.00 1055.89 474.71 1056.00 L 471.33 1056.00 C 460.20 1055.68 448.96 1056.13 438.02 1053.71 C 410.88 1048.56 386.30 1035.16 362.81 1021.18 C 337.82 1006.31 313.60 989.75 286.57 978.67 C 272.39 972.74 257.21 969.98 242.48 965.85 C 208.90 956.79 174.98 946.93 144.79 929.22 C 129.31 920.10 115.23 908.38 104.45 893.93 C 115.13 877.58 125.91 861.29 136.67 844.99 Z" />
<path fill="#0f3b70" d=" M 639.23 864.03 C 645.12 856.11 652.78 848.26 662.91 846.50 C 672.36 844.84 681.32 849.79 688.19 855.83 C 678.04 855.83 667.82 856.26 657.92 858.61 C 651.54 859.90 645.44 862.19 639.23 864.03 Z" />
<path fill="#0f3b70" d=" M 237.07 855.42 C 258.74 859.61 279.79 866.73 299.83 875.94 C 317.75 884.02 335.48 893.51 355.16 896.45 C 380.70 900.52 406.48 895.05 431.13 888.53 C 419.27 901.72 402.93 910.78 385.54 914.19 C 366.73 917.80 347.21 915.41 329.02 909.84 C 301.58 901.37 276.40 886.71 253.65 869.37 C 247.95 864.93 242.30 860.41 237.07 855.42 Z" />
<path fill="#0f3b70" d=" M 457.48 855.72 C 461.52 854.21 465.95 856.35 468.41 859.62 C 473.54 866.19 474.73 874.97 474.08 883.07 C 473.37 889.41 471.38 896.14 466.45 900.50 C 463.38 903.30 458.30 903.61 454.99 901.07 C 451.89 898.85 449.91 895.43 448.58 891.94 C 445.57 883.54 445.60 874.07 448.75 865.73 C 450.39 861.57 453.14 857.38 457.48 855.72 Z" />
<path fill="#0f3b70" d=" M 649.94 868.54 C 664.35 864.07 679.04 860.21 694.02 858.21 C 676.31 872.15 657.05 884.10 636.79 893.96 C 620.21 901.90 602.87 908.42 584.86 912.22 C 567.38 915.86 549.10 916.90 531.57 912.99 C 514.09 909.13 497.69 899.94 485.73 886.55 C 503.55 891.42 521.65 895.81 540.14 896.92 C 557.50 898.34 575.07 895.91 591.56 890.42 C 611.25 883.75 630.05 874.67 649.94 868.54 Z" />
<path fill="#f9fafc" d=" M 143.05 888.90 C 137.46 879.81 146.16 865.64 156.98 867.56 C 162.01 868.76 167.21 871.76 169.19 876.78 C 170.72 881.01 169.47 885.53 168.00 889.59 C 165.68 888.64 163.42 887.57 161.20 886.43 C 161.55 883.64 162.72 880.02 160.13 877.93 C 157.61 875.50 152.59 873.90 150.24 877.34 C 148.22 879.86 150.03 882.99 151.88 885.00 C 155.64 889.44 160.98 893.63 161.07 899.99 C 160.80 908.14 154.60 916.79 146.00 917.27 C 138.82 916.74 130.96 911.95 129.87 904.33 C 129.23 900.32 130.70 896.43 131.90 892.69 C 134.21 893.39 136.50 894.18 138.79 894.96 C 137.40 899.18 136.83 904.97 141.50 907.41 C 146.04 911.06 154.00 906.96 152.49 900.96 C 150.27 896.26 145.53 893.43 143.05 888.90 Z" />
<path fill="#f9fafc" d=" M 187.05 882.00 C 193.55 881.30 200.57 884.45 203.79 890.27 C 207.05 896.00 206.90 902.99 205.15 909.18 C 202.93 917.35 199.11 926.00 191.47 930.42 C 183.16 935.54 170.91 930.99 167.77 921.80 C 164.74 913.53 167.26 904.51 170.67 896.78 C 173.72 889.94 179.30 883.28 187.05 882.00 Z" />
<path fill="#f9fafc" d=" M 741.90 898.51 C 750.63 895.17 759.26 891.58 768.01 888.33 C 768.98 890.83 769.96 893.34 770.87 895.87 C 764.57 898.42 758.23 900.87 751.90 903.35 C 753.02 906.96 754.45 910.47 755.89 913.97 C 761.88 911.72 767.74 909.18 773.78 907.08 C 774.76 909.53 775.73 911.98 776.73 914.44 C 770.90 917.02 764.89 919.15 758.99 921.55 C 760.43 925.92 762.23 930.16 763.93 934.43 C 770.61 931.90 777.13 928.93 783.96 926.81 C 784.88 929.27 785.83 931.71 786.77 934.18 C 777.82 937.73 768.87 941.26 759.89 944.75 C 753.94 929.32 747.57 914.04 741.90 898.51 Z" />
<path fill="#0f3b70" d=" M 184.48 891.64 C 189.36 888.55 196.56 891.36 197.98 896.98 C 199.75 903.31 197.17 909.88 194.54 915.60 C 192.56 919.55 189.30 923.39 184.70 924.11 C 180.46 924.73 176.18 921.74 175.02 917.67 C 173.48 912.13 175.02 906.31 177.18 901.16 C 178.76 897.47 180.91 893.71 184.48 891.64 Z" />
<path fill="#f9fafc" d=" M 219.72 891.04 C 223.26 892.36 226.80 893.69 230.36 894.99 C 228.72 906.44 226.43 917.80 225.12 929.30 C 231.21 919.57 237.27 909.81 243.30 900.04 C 246.94 901.16 250.49 902.56 254.05 903.93 C 248.31 919.46 242.56 934.99 236.58 950.43 C 234.48 949.60 232.38 948.78 230.27 947.99 C 234.57 935.59 239.74 923.49 243.76 911.00 C 236.88 922.40 229.82 933.71 222.94 945.11 C 220.67 944.35 218.41 943.56 216.15 942.76 C 217.95 929.45 221.03 916.32 222.52 902.98 C 218.15 915.35 213.32 927.57 208.76 939.88 C 206.58 939.09 204.42 938.26 202.27 937.42 C 208.12 921.97 213.84 906.48 219.72 891.04 Z" />
<path fill="#f9fafc" d=" M 714.94 909.93 C 718.93 904.61 726.74 902.20 732.85 905.12 C 736.85 906.79 739.41 910.49 741.62 914.04 C 739.49 915.46 737.34 916.85 735.15 918.16 C 733.36 915.68 731.34 912.76 728.03 912.45 C 724.49 911.89 720.87 914.07 719.64 917.41 C 717.64 922.14 719.09 927.37 720.39 932.09 C 721.89 936.84 723.62 942.15 728.01 945.02 C 731.33 947.39 736.63 946.36 738.52 942.66 C 740.22 939.89 739.71 936.49 739.88 933.41 C 742.47 933.65 745.06 933.92 747.65 934.26 C 747.70 938.50 747.68 942.95 745.68 946.82 C 742.22 954.03 732.23 956.79 725.45 952.66 C 716.69 947.51 713.11 937.14 711.49 927.65 C 710.68 921.62 711.11 914.92 714.94 909.93 Z" />
<path fill="#f9fafc" d=" M 242.47 952.75 C 252.88 938.95 263.27 925.13 273.77 911.40 C 276.32 912.35 278.86 913.34 281.37 914.42 C 279.96 931.59 279.43 948.81 278.21 965.99 C 275.64 965.09 273.10 964.14 270.55 963.20 C 270.87 959.29 271.27 955.40 271.53 951.49 C 266.61 949.63 261.74 947.64 256.73 946.06 C 254.49 949.21 252.22 952.33 249.93 955.45 C 247.45 954.54 244.96 953.64 242.47 952.75 Z" />
<path fill="#f9fafc" d=" M 688.92 914.13 C 692.22 913.37 696.05 912.86 698.95 915.01 C 704.04 918.86 706.31 925.86 705.29 932.05 C 704.72 935.67 701.94 938.28 698.96 940.11 C 705.86 943.19 709.92 949.80 714.98 955.06 C 715.59 955.92 716.72 956.68 716.66 957.88 C 713.96 958.65 711.22 959.85 708.38 959.69 C 703.42 954.93 699.30 949.30 694.01 944.89 C 691.76 942.83 688.64 944.17 686.08 944.61 C 687.64 951.46 689.86 958.14 691.45 964.99 C 689.04 965.56 686.64 966.18 684.23 966.77 C 679.99 950.79 675.26 934.93 671.19 918.91 C 677.14 917.45 682.98 915.61 688.92 914.13 Z" />
<path fill="#0f3b70" d=" M 680.52 924.86 C 684.65 923.90 688.66 922.27 692.89 921.83 C 697.62 922.79 699.48 929.88 696.30 933.25 C 692.48 935.42 688.09 936.33 683.79 937.01 C 682.75 932.94 681.61 928.91 680.52 924.86 Z" />
<path fill="#f9fafc" d=" M 302.81 922.11 C 305.17 922.94 307.51 923.83 309.85 924.74 C 305.06 937.56 299.95 950.26 295.25 963.11 C 301.17 965.34 307.05 967.68 312.99 969.88 C 312.20 972.50 311.24 975.07 310.22 977.62 C 301.92 974.37 293.60 971.21 285.29 968.02 C 291.02 952.67 297.04 937.44 302.81 922.11 Z" />
<path fill="#0f3b70" d=" M 261.93 939.14 C 265.67 933.79 269.52 928.53 273.48 923.34 C 273.19 929.84 272.31 936.30 272.13 942.81 C 268.69 941.68 265.31 940.43 261.93 939.14 Z" />
<path fill="#f9fafc" d=" M 643.30 927.22 C 648.71 925.35 654.78 927.20 658.99 930.87 C 664.69 935.72 667.87 942.83 669.88 949.89 C 671.54 955.60 671.94 961.97 669.32 967.48 C 665.61 975.91 654.05 979.57 646.15 974.84 C 640.09 971.49 636.42 965.22 633.96 958.96 C 631.22 952.09 629.65 944.25 632.26 937.09 C 633.86 932.11 638.39 928.62 643.30 927.22 Z" />
<path fill="#0f3b70" d=" M 647.67 934.86 C 652.49 934.63 656.37 938.45 658.57 942.39 C 661.13 947.18 663.11 952.49 663.31 957.97 C 663.47 962.81 660.18 968.19 654.96 968.44 C 649.54 968.99 645.34 964.48 642.99 960.11 C 640.16 954.43 637.63 947.84 639.38 941.46 C 640.33 937.69 643.91 935.20 647.67 934.86 Z" />
<path fill="#f9fafc" d=" M 317.94 982.38 C 324.50 967.21 331.64 952.28 338.61 937.29 C 340.77 938.26 342.94 939.25 345.12 940.21 C 338.77 955.50 331.46 970.42 324.46 985.43 C 322.29 984.40 320.11 983.39 317.94 982.38 Z" />
<path fill="#f9fafc" d=" M 593.03 949.15 C 601.10 945.99 609.08 942.60 617.15 939.42 C 618.16 941.94 619.17 944.46 620.09 947.03 C 614.38 949.29 608.72 951.65 603.02 953.94 C 604.40 957.65 605.92 961.31 607.38 965.00 C 612.51 963.43 617.35 961.07 622.35 959.17 C 623.41 961.62 624.44 964.09 625.51 966.55 C 620.59 968.78 615.54 970.70 610.57 972.80 C 613.27 979.30 615.87 985.84 618.56 992.35 C 616.25 993.37 613.90 994.31 611.48 995.02 C 605.44 979.68 598.89 964.55 593.03 949.15 Z" />
<path fill="#f9fafc" d=" M 364.45 1013.20 C 371.34 998.20 378.23 983.20 385.02 968.16 C 390.93 970.83 396.99 973.24 402.61 976.49 C 407.23 979.14 408.30 985.39 406.69 990.13 C 404.96 996.62 400.29 1003.68 392.98 1004.17 C 387.97 1003.91 383.61 1001.07 379.04 999.31 C 376.54 1004.75 374.22 1010.28 371.55 1015.64 C 369.14 1016.20 366.74 1013.96 364.45 1013.20 Z" />
<path fill="#f9fafc" d=" M 526.32 984.54 C 534.78 980.42 543.33 976.47 551.89 972.57 C 553.02 975.03 554.16 977.48 555.30 979.94 C 549.05 982.87 542.75 985.68 536.58 988.74 C 538.17 992.14 539.75 995.55 541.46 998.91 C 547.29 996.30 552.97 993.35 558.89 990.92 C 559.99 993.36 561.09 995.81 562.08 998.31 C 556.35 1000.90 550.70 1003.66 544.97 1006.25 C 546.60 1010.55 548.73 1014.65 550.65 1018.83 C 557.15 1015.90 563.50 1012.66 570.08 1009.90 C 571.21 1012.31 572.33 1014.73 573.48 1017.16 C 564.79 1021.29 556.03 1025.28 547.34 1029.41 C 540.21 1014.51 533.43 999.45 526.32 984.54 Z" />
<path fill="#0f3b70" d=" M 388.38 978.88 C 391.77 980.14 395.47 981.28 398.03 983.97 C 400.40 988.14 397.83 994.55 392.99 995.42 C 389.24 995.47 385.97 993.24 382.59 991.91 C 384.40 987.51 386.46 983.23 388.38 978.88 Z" />
<path fill="#f9fafc" d=" M 420.45 987.65 C 427.04 986.13 434.79 988.32 438.62 994.15 C 442.65 999.94 442.96 1007.41 441.92 1014.18 C 440.62 1022.15 437.83 1030.83 430.86 1035.63 C 423.50 1040.90 412.00 1038.38 407.45 1030.57 C 402.82 1022.89 403.91 1013.29 406.19 1005.02 C 408.17 997.66 412.79 990.02 420.45 987.65 Z" />
<path fill="#f9fafc" d=" M 500.73 994.63 C 505.10 989.75 512.93 987.93 518.76 991.22 C 522.48 993.16 524.81 996.81 526.86 1000.33 C 524.68 1001.69 522.46 1003.01 520.25 1004.32 C 518.46 1001.32 515.91 997.83 511.97 998.14 C 508.33 997.89 505.13 1000.75 504.19 1004.13 C 502.61 1009.01 504.03 1014.17 505.20 1018.99 C 506.40 1023.19 507.91 1027.71 511.48 1030.52 C 514.45 1032.88 519.30 1032.74 521.79 1029.73 C 524.16 1026.94 523.95 1023.02 524.39 1019.61 C 526.90 1020.05 529.42 1020.45 531.95 1020.84 C 531.67 1024.85 531.63 1029.07 529.73 1032.72 C 526.93 1038.38 520.10 1041.52 513.97 1040.31 C 508.58 1039.13 504.23 1035.12 501.54 1030.44 C 497.98 1024.22 496.43 1017.06 495.90 1009.98 C 495.81 1004.55 497.08 998.80 500.73 994.63 Z" />
<path fill="#f9fafc" d=" M 479.02 994.22 C 481.47 993.90 483.92 993.67 486.39 993.48 C 487.79 1010.02 489.34 1026.55 490.65 1043.10 C 488.19 1043.23 485.74 1043.39 483.29 1043.57 C 481.70 1027.14 480.19 1010.69 479.02 994.22 Z" />
<path fill="#f9fafc" d=" M 450.43 994.51 C 452.89 994.63 455.34 994.77 457.81 994.92 C 457.40 1008.64 455.67 1022.29 455.30 1036.02 C 461.65 1036.43 468.02 1036.75 474.36 1037.39 C 474.15 1040.07 473.91 1042.76 473.67 1045.45 C 464.81 1044.83 455.95 1044.29 447.10 1043.56 C 448.02 1027.19 449.37 1010.86 450.43 994.51 Z" />
<path fill="#0f3b70" d=" M 422.94 995.75 C 426.24 995.12 429.94 996.18 432.03 998.92 C 435.25 1002.84 434.82 1008.31 434.26 1013.04 C 433.37 1018.33 431.93 1024.06 427.72 1027.73 C 424.06 1031.04 417.49 1030.56 414.66 1026.40 C 411.32 1021.83 411.97 1015.76 412.78 1010.50 C 413.96 1004.60 416.45 997.48 422.94 995.75 Z" />
</svg>
